<svg width="161" height="54" viewBox="0 0 161 54" fill="none" xmlns="http://www.w3.org/2000/svg">
<path d="M55.8665 3.38268V0.455274H70.1401V3.38268H66.4566V15.4034H59.857V3.38268H55.8665Z" fill="white"/>
<path d="M66.7636 15.7069H59.55V3.6862H55.5596V0.151758H70.4471V3.6862H66.7636V15.7069ZM60.164 15.0999H66.1497V3.07916H69.8332V0.758789H56.1735V3.07916H60.164V15.0999Z" fill="white"/>
<path d="M77.9676 6.22207H84.2602V0.455274H87.1764V15.3275H84.1068V9.25723H78.1211V15.3275H71.5214V0.455274H77.9676V6.22207Z" fill="white"/>
<path d="M87.4833 15.6311H83.7998V9.56075H78.428V15.6311H71.2145V0.151758H78.2746V5.91856H83.9533V0.151758H87.4833V15.6311ZM84.4137 15.024H86.8694V0.758789H84.5672V6.52559H77.6606V0.758789H71.8284V15.024H77.8141V8.95371H84.4137V15.024Z" fill="white"/>
<path d="M104.98 0.303516H89.0181V3.33867H104.98V0.303516Z" fill="white"/>
<path d="M105.287 3.64219H88.7112V0H105.287V3.64219ZM89.3251 3.03516H104.673V0.607031H89.3251V3.03516Z" fill="white"/>
<path d="M94.8503 6.37383V9.25723H92.5481V12.5959H104.98V15.4793H89.3251V6.37383H94.8503Z" fill="white"/>
<path d="M105.287 15.7828H89.0181V6.07031H95.1573V9.56075H92.8551V12.2924H105.287V15.7828ZM89.632 15.1758H104.673V12.8994H92.2412V8.95371H94.5434V6.67735H89.632V15.1758Z" fill="white"/>
<path d="M104.98 38.243H89.0181V41.2781H104.98V38.243Z" fill="white"/>
<path d="M105.287 41.5817H88.7112V37.9395H105.287V41.5817ZM89.3251 40.9746H104.673V38.5465H89.3251V40.9746Z" fill="white"/>
<path d="M94.8503 44.3133V47.1967H92.5481V50.5354H104.98V53.4188H89.3251V44.3133H94.8503Z" fill="white"/>
<path d="M105.287 53.7223H89.0181V44.0098H95.1573V47.5002H92.8551V50.2318H105.287V53.7223ZM89.632 53.1152H104.673V50.8389H92.2412V46.8932H94.5434V44.6168H89.632V53.1152Z" fill="white"/>
<path d="M2.07197 22.4602H9.01692C9.01692 22.4602 12.7204 22.9154 12.5669 26.7094H15.9619C15.9619 26.7094 16.1153 21.2461 9.63391 19.2732H2.07197V22.4602Z" fill="white"/>
<path d="M16.2596 27.0129H12.2477L12.2599 26.6972C12.3981 23.3146 9.29011 22.8047 8.99697 22.7637H1.76501V18.9697H9.67995L9.72446 18.9834C16.3532 21.0003 16.2704 26.6608 16.2688 26.723L16.2596 27.0129ZM15.6457 26.4059C15.5736 25.2692 14.9382 21.2264 9.58633 19.5768H2.37893V22.1566H9.05529C9.09366 22.1642 12.8294 22.6666 12.8785 26.4059H15.6457Z" fill="white"/>
<path d="M4.14395 27.0129H7.98093L15.6549 34.6008H11.8179L4.14395 27.0129Z" fill="white"/>
<path d="M16.3962 34.9043H11.6905L3.40264 26.7094H8.10832L16.3962 34.9043ZM11.9453 34.2973H14.9136L7.85355 27.3164H4.88525L11.9453 34.2973Z" fill="white"/>
<path d="M3.37655 27.0129H0.306959V34.6008H3.37655V27.0129Z" fill="white"/>
<path d="M3.68351 34.9043H0V26.7094H3.68351V34.9043ZM0.613918 34.2973H3.06959V27.3164H0.613918V34.2973Z" fill="white"/>
<path d="M34.3794 19.2732H18.7245V22.3084H34.3794V19.2732Z" fill="white"/>
<path d="M34.6864 22.6119H18.4175V18.9697H34.6864V22.6119ZM19.0315 22.0049H34.0724V19.5768H19.0315V22.0049Z" fill="white"/>
<path d="M31.1563 28.3787H28.8541V25.3436H34.5329V34.6008H18.7245V31.7174H31.1563V28.3787Z" fill="white"/>
<path d="M34.8398 34.9043H18.4175V31.4139H30.8494V28.6822H28.5472V25.04H34.8398V34.9043ZM19.0315 34.2973H34.2259V25.6471H29.1611V28.0752H31.4633V32.0209H19.0315V34.2973Z" fill="white"/>
<path d="M40.6721 19.2732H37.142L45.4299 34.6008L51.4156 23.6742H42.9743L40.6721 19.2732Z" fill="white"/>
<path d="M45.4284 35.2412L36.6294 18.9697H40.8593L43.1615 23.3707H51.9313L45.4284 35.2412ZM37.6547 19.5768L45.4315 33.9604L50.8999 23.9777H42.787L40.4848 19.5768H37.6547Z" fill="white"/>
<path d="M61.8522 19.2732C60.3345 19.2732 58.8508 19.7183 57.5888 20.552C56.3268 21.3858 55.3432 22.5709 54.7624 23.9574C54.1816 25.3439 54.0296 26.8696 54.3257 28.3415C54.6218 29.8134 55.3527 31.1654 56.4259 32.2266C57.4991 33.2878 58.8665 34.0105 60.3551 34.3032C61.8437 34.596 63.3867 34.4457 64.7889 33.8714C66.1912 33.2971 67.3897 32.3246 68.2329 31.0767C69.0761 29.8289 69.5262 28.3619 69.5262 26.8611C69.5262 24.8487 68.7177 22.9187 67.2786 21.4957C65.8394 20.0727 63.8875 19.2732 61.8522 19.2732ZM61.8522 31.5656C60.9112 31.5656 59.9913 31.2897 59.2089 30.7728C58.4265 30.2558 57.8167 29.5211 57.4565 28.6615C57.0964 27.8018 57.0022 26.8559 57.1858 25.9433C57.3694 25.0308 57.8225 24.1925 58.4879 23.5346C59.1533 22.8766 60.0011 22.4286 60.924 22.247C61.847 22.0655 62.8036 22.1587 63.673 22.5148C64.5424 22.8708 65.2855 23.4738 65.8083 24.2475C66.3311 25.0211 66.6101 25.9307 66.6101 26.8611C66.6101 28.1089 66.1088 29.3055 65.2166 30.1877C64.3243 31.07 63.1141 31.5656 61.8522 31.5656Z" fill="white"/>
<path d="M61.8522 34.7525C60.2738 34.7525 58.7307 34.2897 57.4183 33.4226C56.1058 32.5555 55.0829 31.323 54.4788 29.881C53.8748 28.4391 53.7167 26.8524 54.0247 25.3216C54.3326 23.7908 55.0927 22.3847 56.2089 21.2811C57.325 20.1774 58.7471 19.4258 60.2952 19.1214C61.8434 18.8169 63.4481 18.9731 64.9064 19.5704C66.3647 20.1677 67.6112 21.1792 68.4881 22.4769C69.3651 23.7746 69.8332 25.3004 69.8332 26.8611C69.8307 28.9533 68.9891 30.9591 67.4929 32.4385C65.9967 33.9179 63.9682 34.7501 61.8522 34.7525ZM61.8522 19.5768C60.3952 19.5768 58.9708 20.004 57.7593 20.8044C56.5478 21.6048 55.6036 22.7425 55.046 24.0735C54.4884 25.4046 54.3425 26.8692 54.6268 28.2822C54.911 29.6953 55.6127 30.9932 56.643 32.012C57.6733 33.0307 58.9859 33.7245 60.415 34.0055C61.8441 34.2866 63.3253 34.1424 64.6715 33.591C66.0176 33.0397 67.1682 32.106 67.9777 30.9081C68.7872 29.7102 69.2193 28.3019 69.2193 26.8611C69.2172 24.9298 68.4404 23.0782 67.0593 21.7125C65.6781 20.3469 63.8055 19.5788 61.8522 19.5768ZM61.8522 31.8691C60.8505 31.8691 59.8713 31.5754 59.0384 31.0251C58.2055 30.4749 57.5563 29.6927 57.173 28.7776C56.7896 27.8625 56.6893 26.8556 56.8847 25.8841C57.0802 24.9127 57.5625 24.0203 58.2709 23.3199C58.9792 22.6196 59.8817 22.1426 60.8641 21.9494C61.8466 21.7561 62.865 21.8553 63.7905 22.2343C64.7159 22.6134 65.507 23.2553 66.0635 24.0788C66.62 24.9024 66.9171 25.8706 66.9171 26.8611C66.9171 28.1893 66.3835 29.4632 65.4336 30.4023C64.4838 31.3415 63.1955 31.8691 61.8522 31.8691ZM61.8522 22.4602C60.9719 22.4602 60.1114 22.7183 59.3794 23.2019C58.6475 23.6854 58.077 24.3728 57.7401 25.177C57.4033 25.9811 57.3151 26.866 57.4869 27.7197C57.6586 28.5734 58.0825 29.3576 58.705 29.9731C59.3274 30.5886 60.1205 31.0077 60.9839 31.1775C61.8473 31.3474 62.7422 31.2602 63.5555 30.9271C64.3688 30.594 65.064 30.0299 65.553 29.3062C66.0421 28.5824 66.3031 27.7316 66.3031 26.8611C66.3031 25.6939 65.8342 24.5745 64.9995 23.7492C64.1648 22.9238 63.0327 22.4602 61.8522 22.4602Z" fill="white"/>
<path d="M61.8522 38.3947C60.3345 38.3947 58.8508 38.8398 57.5888 39.6735C56.3268 40.5073 55.3432 41.6924 54.7624 43.0789C54.1816 44.4654 54.0296 45.991 54.3257 47.463C54.6218 48.9349 55.3527 50.2869 56.4259 51.3481C57.4991 52.4093 58.8665 53.1319 60.3551 53.4247C61.8437 53.7175 63.3867 53.5672 64.7889 52.9929C66.1912 52.4186 67.3897 51.4461 68.2329 50.1982C69.0761 48.9504 69.5262 47.4834 69.5262 45.9826C69.5262 43.9702 68.7177 42.0402 67.2786 40.6172C65.8394 39.1942 63.8875 38.3947 61.8522 38.3947ZM61.8522 50.6871C60.9112 50.6871 59.9913 50.4112 59.2089 49.8943C58.4265 49.3773 57.8167 48.6426 57.4565 47.783C57.0964 46.9233 57.0022 45.9774 57.1858 45.0648C57.3694 44.1522 57.8225 43.314 58.4879 42.6561C59.1533 41.9981 60.0011 41.5501 60.924 41.3685C61.847 41.187 62.8036 41.2802 63.673 41.6362C64.5424 41.9923 65.2855 42.5953 65.8083 43.369C66.3311 44.1426 66.6101 45.0522 66.6101 45.9826C66.6101 47.2303 66.1088 48.4269 65.2166 49.3092C64.3243 50.1915 63.1141 50.6871 61.8522 50.6871Z" fill="white"/>
<path d="M61.8522 53.874C60.2738 53.874 58.7307 53.4112 57.4183 52.5441C56.1058 51.677 55.0829 50.4445 54.4788 49.0025C53.8748 47.5606 53.7167 45.9739 54.0247 44.4431C54.3326 42.9123 55.0927 41.5062 56.2089 40.4026C57.325 39.2989 58.7471 38.5473 60.2952 38.2428C61.8434 37.9384 63.4481 38.0946 64.9064 38.6919C66.3647 39.2892 67.6112 40.3007 68.4881 41.5984C69.3651 42.8961 69.8332 44.4219 69.8332 45.9826C69.8307 48.0748 68.9891 50.0806 67.4929 51.56C65.9967 53.0394 63.9682 53.8716 61.8522 53.874ZM61.8522 38.6982C60.3952 38.6982 58.9708 39.1255 57.7593 39.9259C56.5478 40.7263 55.6036 41.864 55.046 43.195C54.4884 44.5261 54.3425 45.9907 54.6268 47.4037C54.911 48.8168 55.6127 50.1147 56.643 51.1335C57.6733 52.1522 58.9859 52.846 60.415 53.127C61.8441 53.4081 63.3253 53.2638 64.6715 52.7125C66.0176 52.1612 67.1682 51.2275 67.9777 50.0296C68.7872 48.8317 69.2193 47.4233 69.2193 45.9826C69.2172 44.0513 68.4404 42.1997 67.0593 40.834C65.6781 39.4684 63.8055 38.7003 61.8522 38.6982ZM61.8522 50.9906C60.8505 50.9906 59.8713 50.6969 59.0384 50.1466C58.2055 49.5963 57.5563 48.8142 57.173 47.8991C56.7896 46.984 56.6893 45.9771 56.8847 45.0056C57.0802 44.0341 57.5625 43.1418 58.2709 42.4414C58.9792 41.741 59.8817 41.2641 60.8641 41.0708C61.8466 40.8776 62.865 40.9768 63.7905 41.3558C64.7159 41.7349 65.507 42.3768 66.0635 43.2003C66.62 44.0239 66.9171 44.9921 66.9171 45.9826C66.9171 47.3108 66.3835 48.5846 65.4336 49.5238C64.4838 50.463 63.1955 50.9906 61.8522 50.9906ZM61.8522 41.5816C60.9719 41.5816 60.1114 41.8398 59.3794 42.3233C58.6475 42.8069 58.077 43.4943 57.7401 44.2984C57.4033 45.1026 57.3151 45.9875 57.4869 46.8412C57.6586 47.6949 58.0825 48.4791 58.705 49.0946C59.3274 49.7101 60.1205 50.1292 60.9839 50.299C61.8473 50.4688 62.7422 50.3817 63.5555 50.0486C64.3688 49.7155 65.064 49.1514 65.553 48.4277C66.0421 47.7039 66.3031 46.8531 66.3031 45.9826C66.3031 44.8154 65.8342 43.696 64.9995 42.8707C64.1648 42.0453 63.0327 41.5816 61.8522 41.5816Z" fill="white"/>
<path d="M135.062 19.2732C133.544 19.2732 132.061 19.7183 130.799 20.552C129.537 21.3858 128.553 22.5709 127.972 23.9574C127.391 25.3439 127.239 26.8696 127.535 28.3415C127.832 29.8134 128.562 31.1654 129.636 32.2266C130.709 33.2878 132.076 34.0105 133.565 34.3032C135.053 34.596 136.596 34.4457 137.999 33.8714C139.401 33.2971 140.599 32.3246 141.443 31.0767C142.286 29.8289 142.736 28.3619 142.736 26.8611C142.736 24.8487 141.927 22.9187 140.488 21.4957C139.049 20.0727 137.097 19.2732 135.062 19.2732ZM135.062 31.5656C134.121 31.5656 133.201 31.2897 132.419 30.7728C131.636 30.2558 131.026 29.5211 130.666 28.6615C130.306 27.8018 130.212 26.8559 130.396 25.9433C130.579 25.0308 131.032 24.1925 131.698 23.5346C132.363 22.8766 133.211 22.4286 134.134 22.247C135.057 22.0655 136.013 22.1587 136.883 22.5148C137.752 22.8708 138.495 23.4738 139.018 24.2475C139.541 25.0211 139.82 25.9307 139.82 26.8611C139.82 28.1089 139.319 29.3055 138.426 30.1877C137.534 31.07 136.324 31.5656 135.062 31.5656Z" fill="white"/>
<path d="M135.062 34.7525C133.483 34.7525 131.94 34.2897 130.628 33.4226C129.316 32.5555 128.293 31.323 127.689 29.881C127.084 28.4391 126.926 26.8524 127.234 25.3216C127.542 23.7908 128.302 22.3847 129.419 21.2811C130.535 20.1774 131.957 19.4258 133.505 19.1214C135.053 18.8169 136.658 18.9731 138.116 19.5704C139.574 20.1677 140.821 21.1792 141.698 22.4769C142.575 23.7746 143.043 25.3004 143.043 26.8611C143.04 28.9533 142.199 30.9591 140.703 32.4385C139.206 33.9179 137.178 34.7501 135.062 34.7525ZM135.062 19.5768C133.605 19.5768 132.181 20.004 130.969 20.8044C129.758 21.6048 128.813 22.7425 128.256 24.0735C127.698 25.4046 127.552 26.8692 127.837 28.2822C128.121 29.6953 128.822 30.9932 129.853 32.012C130.883 33.0307 132.196 33.7245 133.625 34.0055C135.054 34.2866 136.535 34.1424 137.881 33.591C139.227 33.0397 140.378 32.106 141.187 30.9081C141.997 29.7102 142.429 28.3019 142.429 26.8611C142.427 24.9298 141.65 23.0782 140.269 21.7125C138.888 20.3469 137.015 19.5788 135.062 19.5768ZM135.062 31.8691C134.06 31.8691 133.081 31.5754 132.248 31.0251C131.415 30.4749 130.766 29.6927 130.383 28.7776C129.999 27.8625 129.899 26.8556 130.094 25.8841C130.29 24.9127 130.772 24.0203 131.481 23.3199C132.189 22.6196 133.091 22.1426 134.074 21.9494C135.056 21.7561 136.075 21.8553 137 22.2343C137.926 22.6134 138.717 23.2553 139.273 24.0788C139.83 24.9024 140.127 25.8706 140.127 26.8611C140.127 28.1893 139.593 29.4632 138.643 30.4023C137.693 31.3415 136.405 31.8691 135.062 31.8691ZM135.062 22.4602C134.182 22.4602 133.321 22.7183 132.589 23.2019C131.857 23.6854 131.287 24.3728 130.95 25.177C130.613 25.9811 130.525 26.866 130.697 27.7197C130.868 28.5734 131.292 29.3576 131.915 29.9731C132.537 30.5886 133.33 31.0077 134.194 31.1775C135.057 31.3474 135.952 31.2602 136.765 30.9271C137.579 30.594 138.274 30.0299 138.763 29.3062C139.252 28.5824 139.513 27.7316 139.513 26.8611C139.513 25.6939 139.044 24.5745 138.209 23.7492C137.375 22.9238 136.242 22.4602 135.062 22.4602Z" fill="white"/>
<path d="M77.8141 31.5656H71.9819V34.449H84.4137V19.2732H77.8141V31.5656Z" fill="white"/>
<path d="M84.7207 34.7525H71.6749V31.2621H77.5071V18.9697H84.7207V34.7525ZM72.2888 34.1455H84.1068V19.5768H78.1211V31.8692H72.2888V34.1455Z" fill="white"/>
<path d="M88.7112 19.2732H91.7807V27.7717C91.7807 27.7717 92.7016 31.5656 96.0782 31.5656C96.0782 31.5656 99.6082 31.8692 100.99 27.6199V19.2732H103.906V28.0752C103.906 28.0752 101.757 36.7254 93.1621 33.9938C93.1621 33.9938 88.8646 31.5656 88.5577 27.6199L88.7112 19.2732Z" fill="white"/>
<path d="M96.3314 34.8284C95.2215 34.8141 94.1206 34.6288 93.0684 34.2791L93.0101 34.2548C92.1902 33.7616 91.4341 33.1714 90.7586 32.4974C89.2499 31.0072 88.3827 29.3272 88.2523 27.6412V27.6123L88.4057 18.9621H92.0892V27.7246C92.2721 28.3625 92.5565 28.9675 92.9318 29.5169C93.7361 30.6779 94.7966 31.2667 96.0828 31.2667H96.1089C96.2424 31.2758 99.3918 31.4837 100.687 27.5744V18.9697H104.217V28.1116L104.208 28.148C104.168 28.3089 103.186 32.1347 99.929 33.9346C98.8285 34.5359 97.5887 34.844 96.3314 34.8284ZM93.2879 33.7115C95.7267 34.4809 97.857 34.3762 99.6205 33.408C102.489 31.8267 103.496 28.4121 103.599 28.0373V19.5768H101.296V27.667L101.281 27.7125C100.534 30.0162 99.16 31.0239 98.1379 31.464C97.4872 31.7526 96.7787 31.8911 96.0659 31.8692C92.499 31.86 91.4922 27.8825 91.483 27.843L91.4738 27.8081V19.5768H89.0181L88.8646 27.6108C89.1532 31.1862 92.9318 33.5066 93.2879 33.7145V33.7115Z" fill="white"/>
<path d="M116.491 22.3084V34.6008H110.198V22.3084H106.054V19.2732H120.328V22.3084H116.491Z" fill="white"/>
<path d="M116.798 34.9043H109.891V22.6119H105.747V18.9697H120.635V22.6119H116.798V34.9043ZM110.505 34.2973H116.184V22.0049H120.021V19.5768H106.361V22.0049H110.505V34.2973Z" fill="white"/>
<path d="M48.653 41.1264V53.4188H42.3603V41.1264H38.2164V38.0912H52.49V41.1264H48.653Z" fill="white"/>
<path d="M48.96 53.7223H42.0534V41.4299H37.9094V37.7877H52.7969V41.4299H48.96V53.7223ZM42.6673 53.1152H48.346V40.8229H52.183V38.3947H38.5234V40.8229H42.6673V53.1152Z" fill="white"/>
<path d="M124.779 19.2732H121.863V34.2973H124.779V19.2732Z" fill="white"/>
<path d="M125.086 34.6008H121.556V18.9697H125.086V34.6008ZM122.17 33.9938H124.472V19.5768H122.17V33.9938Z" fill="white"/>
<path d="M110.045 45.8309V53.4188H106.975V38.3947L114.496 45.8309H110.045Z" fill="white"/>
<path d="M110.352 53.7223H106.668V37.6617L115.237 46.1344H110.352V53.7223ZM107.282 53.1152H109.738V45.5274H113.754L107.282 39.1277V53.1152Z" fill="white"/>
<path d="M119.714 45.8309V38.243H122.784V53.267L115.263 45.8309H119.714Z" fill="white"/>
<path d="M123.091 54L114.522 45.5274H119.407V37.9395H123.091V54ZM116.004 46.1344L122.477 52.534V38.5465H120.021V46.1344H116.004Z" fill="white"/>
<path d="M147.954 26.8611V34.449H144.885V19.425L152.405 26.8611H147.954Z" fill="white"/>
<path d="M148.261 34.7525H144.578V18.692L153.146 27.1647H148.261V34.7525ZM145.192 34.1455H147.647V26.5576H151.664L145.192 20.158V34.1455Z" fill="white"/>
<path d="M157.623 26.8611V19.2732H160.693V34.2973L153.173 26.8611H157.623Z" fill="white"/>
<path d="M161 35.0303L152.431 26.5576H157.316V18.9697H161V35.0303ZM153.914 27.1647L160.386 33.5643V19.5768H157.93V27.1647H153.914Z" fill="white"/>
<path d="M74.591 46.1344H71.6749V53.4188H74.591V46.1344Z" fill="white"/>
<path d="M74.898 53.7223H71.368V45.8309H74.898V53.7223ZM71.9819 53.1152H74.2841V46.4379H71.9819V53.1152Z" fill="white"/>
<path d="M75.5119 45.0721H79.1954L87.3298 37.7877H83.4929L75.5119 45.0721Z" fill="white"/>
<path d="M79.3136 45.3756H74.7261L83.3731 37.4842H88.131L79.3136 45.3756ZM76.2977 44.7686H79.0772L86.5333 38.0912H83.6172L76.2977 44.7686Z" fill="white"/>
<path d="M75.5119 46.1344L79.2875 46.0813L87.3298 53.4188L83.4008 53.4688L75.5119 46.1344Z" fill="white"/>
<path d="M83.2811 53.7739L74.7491 45.8415L79.4057 45.7762L88.1049 53.7132L83.2811 53.7739ZM76.2747 46.4273L83.522 53.1638L86.5548 53.1244L79.1693 46.3863L76.2747 46.4273Z" fill="white"/>
</svg>
