<?xml version="1.0" encoding="UTF-8" standalone="no"?><!DOCTYPE svg PUBLIC "-//W3C//DTD SVG 1.1//EN" "http://www.w3.org/Graphics/SVG/1.1/DTD/svg11.dtd"><svg width="100%" height="100%" viewBox="0 0 3334 2500" version="1.1" xmlns="http://www.w3.org/2000/svg" xmlns:xlink="http://www.w3.org/1999/xlink" xml:space="preserve" xmlns:serif="http://www.serif.com/" style="fill-rule:evenodd;clip-rule:evenodd;stroke-linecap:round;stroke-linejoin:round;stroke-miterlimit:1.5;"><g id="Layer1"><path d="M1586.81,182.529l-844.198,495.437c-0,0 -94.524,32.595 -94.524,130.378l-0,1052.8c-0,0 3.259,91.265 65.189,130.378c61.929,39.114 673.593,392.135 673.593,392.135l627.847,-0l672.726,-391.507c-0,-0 73.696,-38.45 73.696,-124.963l-0,-1077.44c-0,-0 2.335,-62.887 -78.324,-110.053c-80.66,-47.165 -910.484,-524.971 -910.484,-524.971c-0,-0 -65.379,-35.192 -135.345,1.367c-50.373,26.321 -50.176,26.44 -50.176,26.44Z" style="fill:url(#_Linear1);stroke:#fff;stroke-width:4.17px;"/></g><g id="Layer2"><path d="M781.739,898.866l-0,895.611c-0,-0 -5.563,66.753 57.853,105.693c63.416,38.939 432.786,251.438 432.786,251.438l-0,-1327.28l-165.772,-3.338c0,0 -28.926,6.676 -28.926,-21.138l-0,-77.88c-0,0 -5.563,-17.8 17.801,-17.8l481.738,-0c-0,-0 16.688,-0 16.688,17.8l0,77.88c0,-0 2.225,21.138 -18.913,21.138l-172.447,0l0,1404.05l595.219,0l0,-1400.71l-176.897,-0c0,-0 -22.251,-0 -22.251,-17.801l0,-83.442c0,0 -1.112,-15.576 18.914,-15.576l495.882,0c-0,0 16.688,0 16.688,14.463l0,91.23c0,0 0,12.239 -11.125,13.351c-11.126,1.113 -185.798,-2.225 -185.798,-2.225l2.225,1326.17l426.111,-244.763c-0,-0 57.853,-44.503 58.965,-91.23c1.113,-46.728 0,-942.338 0,-942.338c0,-0 -1.112,-58.966 -41.165,-85.667c-40.052,-26.701 -807.718,-471.725 -807.718,-471.725c0,-0 -78.991,-32.264 -140.182,3.337c-61.191,35.602 -774.877,446.137 -774.877,446.137c-0,-0 -74.799,52.29 -74.799,134.619Z" style="stroke:#fff;stroke-width:4.17px;"/></g><g id="Layer3"><path d="M1503.42,886.997l-0,1262.76c-0,-0 -0.49,15.627 15.186,15.627l120.67,0c0,0 16.041,-0.364 16.041,-17.134l0,-585.489l82.522,0c-0,0 15.676,1.823 15.676,22.968l-0,570.541c-0,0 -1.458,10.208 11.666,10.208l123.951,0c0,0 10.937,0.365 10.937,-13.853l0,-598.978c0,-17.499 -37.55,-48.487 -64.892,-48.487c-0,0 63.799,-21.145 63.799,-60.517l-0,-481.953c-0,-19.687 -36.821,-82.391 -96.974,-82.391l-286.183,-0c0,-0 -12.399,-0.812 -12.399,6.703Z" style="fill:url(#_Linear2);stroke:#fff;stroke-width:4.17px;"/></g><g id="Layer4"><path d="M1657.17,996.588l-0,460.154l62.303,0c18.691,0 36.492,-18.69 36.492,-32.041l0,-402.302c0,-16.02 -13.351,-27.591 -22.251,-27.591c-8.901,0 -76.544,1.78 -76.544,1.78Z" style="stroke:#fff;stroke-width:4.17px;"/></g><defs><linearGradient id="_Linear1" x1="0" y1="0" x2="1" y2="0" gradientUnits="userSpaceOnUse" gradientTransform="matrix(-2205.72,-1544.84,1544.84,-2205.72,2729.38,2096.8)"><stop offset="0" style="stop-color:#2b0000;stop-opacity:1"/><stop offset="0.5" style="stop-color:#c03535;stop-opacity:1"/><stop offset="1" style="stop-color:#e3aaaa;stop-opacity:1"/></linearGradient><linearGradient id="_Linear2" x1="0" y1="0" x2="1" y2="0" gradientUnits="userSpaceOnUse" gradientTransform="matrix(-2217.7,-1519.38,4926.83,-7191.25,2751.17,2087.83)"><stop offset="0" style="stop-color:#2b0000;stop-opacity:1"/><stop offset="0.5" style="stop-color:#c03535;stop-opacity:1"/><stop offset="1" style="stop-color:#e3aaaa;stop-opacity:1"/></linearGradient></defs></svg>