<svg width="109" height="226" viewBox="0 0 109 226" fill="none" xmlns="http://www.w3.org/2000/svg">
<g style="mix-blend-mode:screen">
<g clip-path="url(#clip0_2_1621)">
<path d="M59.9347 41.1869C61.7093 40.472 63.5522 40.3238 64.9668 38.9137C66.0873 37.7961 66.3237 36.407 66.6206 34.93C66.5089 34.9208 65.9008 34.7266 65.7891 34.707C67.607 35.8521 63.4878 40.7212 59.8323 40.5219C58.876 40.4733 59.0783 41.5358 59.9347 41.1869Z" fill="white"/>
<path d="M52.7748 39.8345C54.309 40.3802 56.6182 41.1174 58.2798 40.716C58.3179 40.7055 58.3678 40.6622 58.3126 40.6347C55.9049 39.4659 50.0965 39.8647 50.2817 36.0082C50.3041 35.5255 49.093 35.6239 49.0418 36.1184C48.8303 38.1699 51.1132 39.2403 52.7748 39.8345Z" fill="white"/>
<path d="M85.6825 47.3258C86.1304 45.7832 87.1524 44.7141 87.9707 43.3604C88.8442 41.9175 88.504 40.6058 87.9615 39.1314C87.9418 39.0803 87.8157 39.1065 87.8144 39.159C87.7316 41.0977 87.884 42.454 86.6637 44.1094C85.9163 45.126 85.077 46.0691 84.9745 47.3586C84.9522 47.6248 85.6182 47.5475 85.6825 47.3258Z" fill="white"/>
<path d="M83.2393 45.7005C84.7853 44.9555 84.6106 43.0325 84.6264 41.6342C84.6264 41.583 84.495 41.5922 84.495 41.6342C84.2888 42.8147 84.2126 44.861 82.9319 45.4592C82.5983 45.61 83.0239 45.8042 83.2393 45.7005Z" fill="white"/>
<path d="M99.7621 67.4621C101.355 66.8771 102.869 65.7411 103.525 64.0608C103.545 64.0096 103.42 64.0096 103.402 64.0529C103.008 65.0288 102.088 65.627 101.187 66.1228C100.787 66.3354 100.376 66.5272 99.9552 66.6973C99.414 66.9256 99.1671 67.0095 98.9911 66.435C98.9806 66.4022 98.9031 66.4075 98.9031 66.4442C98.9059 66.6672 98.9266 66.8895 98.9648 67.1092C98.974 67.1656 99.7253 67.4752 99.7621 67.4621Z" fill="white"/>
<path d="M79.9345 46.2003C80.0278 46.342 80.4074 46.2961 80.41 46.1045C80.4481 43.8143 79.6718 40.1126 82.1005 38.6041C82.5287 38.3417 81.7564 38.1096 81.491 38.2604C80.2708 38.9543 79.8596 40.3001 79.6087 41.5712C79.3408 42.9354 79.1214 44.9817 79.9345 46.2003Z" fill="white"/>
<path d="M46.6472 21.4874C47.5916 22.2889 48.9274 22.5958 50.1227 22.8647C51.582 23.1843 53.0679 23.3679 54.5611 23.413C56.2096 23.472 57.6427 22.8018 59.1795 22.2994C59.2911 22.2626 59.2373 22.1813 59.1414 22.1866C57.7977 22.2679 56.5446 22.8542 55.2008 22.8621C54.0922 22.87 52.9783 22.7073 51.8881 22.525C50.7059 22.3269 49.5238 22.0436 48.4309 21.5582C48.0423 21.4033 47.7028 21.1463 47.4484 20.8145C47.2566 20.5403 47.4182 20.2898 47.1778 20.0038C47.1246 19.957 47.0584 19.9275 46.988 19.9193C46.9176 19.9111 46.8463 19.9246 46.7838 19.9579C46.014 20.2806 46.0442 20.9863 46.6472 21.4874Z" fill="white"/>
<path d="M50.434 13.1829C50.5338 13.2747 50.7532 13.2406 50.8517 13.1632C51.0803 12.9874 51.142 12.7697 51.3364 12.5939C51.5755 12.3696 52.0904 12.4037 52.3872 12.3958C52.952 12.3827 53.4998 12.4221 54.0554 12.2988C54.1867 12.2712 54.171 12.1335 54.0383 12.1374C53.199 12.1584 52.3833 11.921 51.5426 11.9997C51.0198 12.0482 49.7891 12.5821 50.434 13.1829Z" fill="white"/>
<path d="M24.027 28.9708C27.2372 29.8995 30.6051 32.4718 33.8587 30.2065C33.8902 30.1855 33.8311 30.1737 33.8127 30.1855C31.2632 31.8291 27.9872 29.8169 25.5572 28.5235C25.564 28.4546 25.5433 28.3857 25.4994 28.332C25.3431 28.1143 25.02 28.109 24.777 28.1339L24.4328 28.1693C24.0769 28.2074 23.3702 28.7806 24.027 28.9708Z" fill="white"/>
<path d="M24.6758 21.1267C25.1855 21.1267 25.2144 21.1372 25.6781 21.0125C25.7963 20.9811 25.8278 20.8814 25.7057 20.8184C25.6124 20.7725 25.5323 20.7358 25.4561 20.7043C27.4145 19.3152 29.968 17.8644 32.4388 18.2487C32.4848 18.2553 32.49 18.2146 32.4453 18.2054C29.3099 17.5929 26.8051 19.0266 24.1977 20.5272C23.6868 20.821 24.354 21.1175 24.6758 21.1267Z" fill="white"/>
<path d="M26.2967 24.528C26.9054 24.4645 27.5093 24.3606 28.1042 24.2171C28.2197 24.1935 28.3866 24.0859 28.3669 23.9547C28.3419 23.7737 28.0726 23.7593 27.9347 23.7737C27.3205 23.8204 26.7101 23.908 26.1076 24.0361C25.9762 24.0662 25.7936 24.1777 25.8147 24.3273C25.8449 24.528 26.1444 24.5385 26.2967 24.528Z" fill="white"/>
<path d="M53.3291 54.9915C53.9378 54.9284 54.5415 54.825 55.1365 54.6819C55.2507 54.6583 55.4189 54.5508 55.3992 54.4196C55.3755 54.2386 55.1063 54.2241 54.9684 54.2386C54.3537 54.2851 53.7428 54.3728 53.1399 54.5009C53.0151 54.5311 52.8273 54.6439 52.847 54.7934C52.8772 54.9941 53.1754 55.0033 53.3291 54.9915Z" fill="white"/>
<path d="M11.4132 38.225C13.8603 38.3732 16.3166 37.6308 18.5483 36.7244C18.5982 36.7047 18.5706 36.6588 18.526 36.6588C16.624 36.7099 10.5306 39.2298 9.7096 36.3741C9.64524 36.1472 9.28532 36.2102 9.13689 36.3086C7.79316 37.1953 10.7998 38.187 11.4132 38.225Z" fill="white"/>
<path d="M11.4448 33.6261C11.8861 33.6589 12.3472 33.4529 12.736 33.2772C13.5057 32.9269 15.3105 31.3778 16.18 32.014C16.2129 32.0376 16.3193 32.014 16.2759 31.9707C15.6297 31.3988 14.9309 31.5129 14.1165 31.8395C13.5372 32.073 12.9855 32.3642 12.426 32.6265C12.2075 32.7338 11.9809 32.8237 11.7482 32.8954C11.5656 32.9505 11.341 32.8364 11.1295 32.9086C10.616 33.0909 10.9627 33.5907 11.4448 33.6261Z" fill="white"/>
<path d="M90.7922 39.5289C90.5761 39.2503 90.4107 38.936 90.3035 38.6002C88.8416 34.4656 88.0298 12.9704 88.0245 13.5462C87.9733 18.4494 87.5897 25.4042 88.1782 30.0241C88.4869 32.4548 88.2032 36.4345 88.835 38.8022C89.0412 39.5722 89.9948 40.4104 90.7922 41.0177V39.5289Z" fill="white"/>
<path d="M80.6517 12.6044C80.7034 12.4698 80.7631 12.3384 80.8304 12.2109C78.7826 12.3696 76.8241 12.2109 74.8315 12.6372C74.8959 12.5664 74.8315 12.506 74.733 12.506C74.1918 12.4929 73.8135 12.5926 73.6717 13.1238C73.5902 13.44 74.1472 13.3704 74.2969 13.3193C76.346 12.6332 78.5356 12.8038 80.6517 12.6044Z" fill="white"/>
<path d="M72.5972 8.41865L72.9373 8.35962C73.1357 8.32552 73.4956 8.21796 73.5389 7.98185C73.5482 7.94728 73.5504 7.91117 73.5452 7.87576C73.54 7.84034 73.5276 7.80636 73.5087 7.77591C73.5016 7.76488 73.4937 7.75435 73.4851 7.74442C74.134 6.99149 74.8459 6.30808 75.8166 5.93949C76.9686 5.50268 78.4607 5.93293 79.5772 6.28972C79.6074 6.30021 79.6836 6.26348 79.6324 6.23725C78.3071 5.60631 77.1262 5.16032 75.6287 5.44234C74.1313 5.72437 72.9387 6.87212 71.9246 7.91232C71.5595 8.28748 72.3712 8.45669 72.5972 8.41865Z" fill="white"/>
<path d="M56.5695 98.1788C56.6588 98.2271 56.7598 98.2494 56.8611 98.2431C57.8817 99.9011 58.9352 101.554 59.7745 103.298C59.8744 103.504 60.1581 103.455 60.338 103.386C62.8127 105.707 65.5291 107.105 68.9246 107.828C68.9364 107.828 68.9626 107.812 68.9443 107.81C65.7169 107.154 62.9178 105.385 60.8438 102.927C60.8009 102.89 60.7493 102.864 60.6937 102.852C60.6382 102.84 60.5804 102.842 60.5259 102.858C59.9216 100.759 58.2469 99.0695 57.9212 96.8841C57.8424 96.3594 56.8309 96.6966 56.5984 96.8605C55.9732 97.2947 55.9299 97.7682 56.5695 98.1788Z" fill="white"/>
<path d="M19.9827 60.6424C20.0825 60.7303 20.403 60.7106 20.4371 60.5545C20.5856 59.8659 20.3715 59.4723 21.2371 59.1864C21.9424 58.9542 22.7332 58.924 23.4701 58.869C24.4408 58.7942 25.6702 58.8021 26.5188 58.2498C26.5831 58.2078 26.4675 58.175 26.4281 58.196C25.7109 58.5817 24.7206 58.444 23.9324 58.4807C23.1169 58.4981 22.3031 58.5656 21.4958 58.6827C20.6657 58.8217 18.8675 59.673 19.9827 60.6424Z" fill="white"/>
<path d="M36.0247 53.6221C36.076 53.7401 36.3229 53.6942 36.3991 53.6352C36.7551 53.3558 36.872 53.0541 37.1517 52.6973C37.5327 52.2067 38.1829 51.9483 38.7608 51.7555C39.7433 51.4276 40.7915 51.3043 41.7977 51.0603C41.8857 51.0406 41.8384 50.9724 41.7688 50.9776C40.4789 51.0511 39.105 51.0891 37.8939 51.5876C37.1899 51.8788 35.6399 52.7039 36.0247 53.6221Z" fill="white"/>
<path d="M49.8877 32.2593C49.9691 31.9051 50.4328 29.5716 50.8794 29.4889C51.0016 29.4824 51.0567 29.0626 51.0213 28.9905C51.0029 28.9537 50.9845 28.917 50.9648 28.8803C50.9616 28.8678 50.9552 28.8564 50.9462 28.8472C50.9372 28.838 50.9259 28.8313 50.9135 28.8278C50.1675 28.8593 49.8627 31.0958 49.7314 31.669C49.4844 32.7354 49.2913 33.853 49.3465 34.9483C49.3465 34.9942 49.4857 34.8408 49.4923 34.804C49.6473 33.9567 49.692 33.104 49.8877 32.2593Z" fill="white"/>
<path d="M29.8104 60.1138C29.5372 60.1479 28.6492 60.4404 28.6637 60.6463C28.6873 60.7107 28.7224 60.7703 28.7674 60.8221C28.7674 60.7513 28.9448 60.8155 29.1129 60.91C28.0621 62.4657 26.7236 63.927 24.7625 64.0476C22.7699 64.1788 20.8745 63.9571 19.0211 63.2711C18.9672 63.2514 18.8897 63.4902 18.9528 63.5216C20.7234 64.4884 24.1281 65.3292 26.122 64.3756C27.4762 63.7276 28.5717 62.4395 29.4255 61.1933C29.4124 61.2156 29.3598 61.2222 29.2508 61.2038C29.26 61.1422 29.2705 61.0726 29.2797 61.0176C29.3769 61.0871 29.4439 61.1553 29.4281 61.1907C29.524 61.0503 29.6199 60.91 29.7092 60.7709C29.7355 60.7316 30.0836 60.0757 29.8104 60.1138Z" fill="white"/>
<path d="M12.2775 81.7861C12.0227 80.4193 11.5604 79.1115 11.2267 77.7618C10.4977 74.7579 9.7214 71.6976 8.67583 68.7909C8.65088 68.72 8.44599 68.9601 8.46569 69.0414C9.14478 71.8472 9.66361 74.6018 9.8278 77.4915C9.89479 78.68 9.82781 79.8684 9.84226 81.0594C9.85277 81.8045 9.87773 82.5496 9.88036 83.2894C9.88036 84.6208 9.83304 84.1381 11.3975 85.2137C11.4671 85.2622 11.5288 85.2884 11.5879 85.2137C12.8069 83.6632 12.6112 83.5871 12.2775 81.7861Z" fill="white"/>
<path d="M8.13863 43.7225C7.05892 42.7636 6.43103 42.7452 5.09781 42.2206C5.07285 42.2101 4.98879 42.2953 5.00981 42.3137C5.69416 42.8882 6.82378 43.7658 7.59876 44.2983C7.29271 44.4138 6.31806 44.8781 5.32241 45.37C5.73212 45.2551 6.15091 45.1752 6.5742 45.1313C7.07991 44.8689 7.59219 44.6066 8.12417 44.3797C8.48145 44.2249 8.26604 43.8353 8.13863 43.7225Z" fill="white"/>
<path d="M4.64991 50.6313C5.86886 48.9694 7.49105 47.7586 8.54318 45.9393C8.54318 45.9012 8.52874 45.8619 8.52086 45.8238L8.38951 45.6113C8.23189 45.349 8.67848 44.562 8.32121 44.983C7.81681 45.5864 7.33343 45.9275 7.22834 46.7224C7.23885 47.007 6.73184 47.3271 6.74235 47.6117C6.47964 48.3909 5.15429 49.0809 4.89552 49.86C4.81803 50.0292 4.73266 50.1958 4.64465 50.3611L4.64991 50.6313Z" fill="white"/>
<path d="M16.2706 60.8628C14.4382 60.6096 12.7543 59.7308 10.9403 59.391C9.91839 59.2008 9.2498 59.391 8.24758 59.5484C8.24758 59.5484 8.22396 59.5616 8.23052 59.5655C10.0117 60.4837 12.0542 60.9467 14.0508 61.2891L14.3135 61.5423C14.7325 61.9764 15.9974 61.8322 16.4729 61.6C17.148 61.2694 17.0049 60.9677 16.2706 60.8628Z" fill="white"/>
<path d="M47.4353 46.3722C47.4445 46.3722 47.4696 46.3499 47.4617 46.3472C47.4538 46.3446 47.4353 46.3696 47.4353 46.3722Z" fill="white"/>
<path d="M63.6179 53.8568L62.4909 53.4738C62.512 53.5591 62.5461 53.647 62.5566 53.7047C62.6316 54.0479 62.6102 54.4051 62.4949 54.737C62.332 55.1082 61.7856 55.3194 61.4572 55.5241C61.4349 55.5385 61.318 55.6631 61.3626 55.6906C61.6582 55.8717 61.955 55.7798 62.2571 55.6395C62.5592 55.4991 62.9743 55.2906 63.1989 55.0531C63.4235 54.8157 63.6849 54.5285 63.7033 54.1992C63.6963 54.0808 63.6673 53.9647 63.6179 53.8568Z" fill="white"/>
<path d="M41.3577 56.2114C40.7837 56.2521 40.2097 56.6469 39.6882 56.9014C39.0314 57.2175 38.4062 57.6412 37.7179 57.876C37.71 57.876 37.6851 57.9036 37.7021 57.8983C38.3865 57.6753 39.1917 57.6622 39.9023 57.5179C40.3857 57.4195 41.1764 57.4143 41.5311 57.0693C41.6559 56.946 41.5849 56.1957 41.3577 56.2114Z" fill="white"/>
<path d="M25.443 138.201C25.3524 145.181 25.2368 152.16 25.1803 159.141C25.0608 172.943 25.0358 186.752 24.961 200.555C24.9399 204.482 25.1685 214.407 25.1685 214.407C25.2618 203.512 25.6598 187.03 25.7596 182.102C26.042 168.254 26.4492 132.572 26.9877 128.962C27.2504 127.163 26.905 119.796 26.5135 117.843C26.4544 117.55 24.9964 116.462 24.9373 116.794C24.295 120.217 25.4877 134.643 25.443 138.201Z" fill="white"/>
<path d="M61.0329 144.892C60.9107 141.948 60.7373 139.006 60.472 136.072C60.3424 134.642 60.1891 133.215 60.0122 131.79C59.8205 130.26 59.8362 128.486 58.8012 127.27C58.6094 127.045 57.8699 126.519 57.5441 126.71C56.5288 127.308 55.7604 128.179 54.6885 128.738C54.6885 128.738 54.6728 128.752 54.6885 128.75C55.5594 128.425 56.4565 128.267 57.3471 128.059C57.196 130.944 58.0236 134.11 58.2666 136.931C58.5424 140.05 58.7263 143.176 58.8524 146.305C59.0993 152.411 59.5407 158.45 60.0175 164.538C60.2329 167.3 60.3813 170.067 60.5219 172.829C60.468 170.074 60.5088 167.33 60.6664 164.603C61.0473 158.008 61.3074 151.503 61.0329 144.892Z" fill="white"/>
<path d="M63.1464 197.243C62.1626 198.675 62.6722 195.013 62.5842 194.326C62.4594 193.356 62.328 192.387 62.2072 191.416C61.9576 189.424 61.7225 187.429 61.536 185.43C61.2037 181.862 61.0106 178.279 60.786 174.702H60.5706V174.781C60.8017 178.523 61.0881 182.268 61.1564 186.016C61.2273 189.871 61.5767 194.017 61.025 197.829C61.0065 197.862 61.0018 197.901 61.0119 197.937C61.022 197.974 61.0461 198.005 61.0789 198.023L62.1612 198.679C62.2125 198.709 62.6866 199.002 62.7418 198.837L63.1989 197.442C63.2181 197.409 63.2234 197.369 63.2135 197.332C63.2037 197.295 63.1796 197.263 63.1464 197.243Z" fill="white"/>
<path d="M63.1201 119.673C60.3617 121.867 56.2267 120.318 53.1373 119.74C49.8018 119.114 46.4664 118.491 43.1309 117.87C41.9277 117.646 40.5511 117.215 39.3085 117.295C38.0383 117.381 37.0992 118.168 36.0825 118.845C35.7323 119.077 35.382 119.305 35.0317 119.531C34.0923 120.454 33.0798 121.3 32.004 122.06C33.6987 121.303 35.3373 120.426 36.9074 119.437C38.4285 118.491 39.5424 118.167 41.3734 118.49C43.2045 118.812 45.0105 119.172 46.8284 119.51C50.3855 120.174 53.9399 120.923 57.5219 121.44C60.2001 121.825 62.9664 121.833 65.0746 119.925C65.3242 119.695 63.5404 119.34 63.1201 119.673Z" fill="white"/>
<path d="M78.5277 116.304C77.0907 115.589 76.9161 115.78 77.1669 116.109C74.3429 116.846 71.3743 117.584 68.6842 118.709C68.6225 118.735 68.4399 119.035 68.5528 119.035C71.9417 119.051 75.5973 117.986 78.7392 116.795C79.0912 116.658 78.7195 116.4 78.5277 116.304Z" fill="white"/>
<path d="M64.6149 54.1363L65.1403 53.8674C64.9577 53.9417 64.7819 54.0317 64.6149 54.1363Z" fill="white"/>
<path d="M64.5505 54.1725C64.5622 54.166 64.5764 54.1634 64.588 54.157L64.6139 54.1402L64.5505 54.1725Z" fill="white"/>
<path d="M68.3282 55.8258C68.3355 55.7274 68.3262 55.6285 68.3006 55.5332C68.2126 55.2709 67.0422 54.817 66.6994 54.762C66.5691 54.6463 66.4268 54.5447 66.2751 54.4589C65.9165 54.2753 65.022 53.908 64.5886 54.1533C64.5242 54.194 64.4572 54.2307 64.3968 54.2753C64.2024 54.4065 64.0027 54.5377 63.8215 54.6688C63.5301 54.9009 63.2658 55.1649 63.0333 55.4559C62.8534 55.6789 63.1424 55.8677 63.3276 55.9491C64.3534 56.399 65.5225 56.6443 66.635 56.3924C66.9529 56.3216 67.5716 55.9543 67.9 56.0514C68.2283 56.1484 67.8513 56.218 68.0786 56.3636C68.1324 56.3977 68.1443 56.3636 68.1902 56.3452C68.3203 56.2875 68.3269 55.9307 68.3282 55.8258Z" fill="white"/>
<path d="M85.2359 114.737C85.9809 113.345 86.6338 111.905 87.1904 110.428C90.4861 102.227 94.6999 92.8768 99.9763 84.024C108.514 70.786 108.668 67.8058 108.162 62.9052C107.834 58.0518 105.272 55.6041 104.593 54.8866C104.583 54.8735 96.787 47.6485 93.0343 41.6814C92.0071 40.3907 88.324 36.1302 85.295 36.1722C78.4923 37.8433 75.4121 35.477 73.1266 34.8237C71.5832 34.1128 69.9307 32.9873 68.3138 32.5334C67.3286 32.254 65.8772 32.178 64.8251 32.6725C63.2299 32.2866 61.6656 31.7833 60.145 31.1666C57.7911 30.2366 54.5481 28.6743 51.9749 27.8873C51.4876 27.7128 50.551 27.663 50.2673 27.7469C45.9655 28.2808 43.8849 35.4297 43.718 35.9885C42.7618 39.1695 43.4265 42.4239 45.4677 44.844C46.5894 46.7499 48.2261 48.3227 49.9429 49.9007C55.0196 54.5783 62.4936 56.9237 69.3186 58.0911C69.7928 59.2533 70.6322 60.2607 71.2889 61.3075C73.1069 64.171 74.9563 66.9702 76.8977 69.7589C77.7856 71.7908 78.7668 73.8148 79.2778 74.8471C79.9345 76.1851 81.8444 78.9135 83.7437 77.6909C83.9171 77.5808 83.8436 77.4089 83.6938 77.3342C82.9241 76.9406 82.3002 76.9629 81.6513 76.2703C80.9289 75.4991 80.4547 74.4995 80.0304 73.5538C79.8097 73.0605 79.6127 72.5542 79.4328 72.0387C80.2167 72.9331 81.0527 73.7806 81.9363 74.5769C83.2379 75.7887 84.7135 76.7994 86.3143 77.5755C86.7881 77.7146 87.2653 77.8457 87.7461 77.969C87.574 77.7329 86.2473 77.1453 86.0582 76.9196C84.7263 76.2061 84.6251 75.7391 83.4482 74.6989C82.291 73.6718 80.5401 71.6701 79.1136 69.6724C79.3763 69.5123 79.5077 69.33 79.3947 69.1726C79.1959 68.898 78.9984 68.623 78.8023 68.3475C79.7585 68.5325 80.7358 68.5836 82.0244 69.3182C83.66 70.2486 85.4477 70.8824 87.3047 71.19C88.5381 71.4091 90.9826 71.6045 91.885 70.5342C92.0478 70.3413 91.5829 70.3269 91.4765 70.4095C90.0763 71.4825 86.7478 70.6299 85.2898 70.1472C83.7556 69.6422 82.5314 68.64 81.1233 67.9173C79.4879 67.083 77.8618 66.3301 76.5167 65.1495C75.8902 64.2995 75.2439 63.464 74.5649 62.6572C74.1156 61.8164 73.7544 60.9192 73.3656 60.0508C73.0057 58.5345 72.5841 57.4877 72.1086 56.7505C72.1086 56.7151 72.1177 56.6784 72.123 56.6417C72.3041 56.6799 72.4883 56.701 72.6734 56.7046C73.2863 56.7169 73.8972 56.7274 74.5058 56.7361C74.7304 56.7361 74.8643 56.6863 74.9077 56.5944C76.8136 56.7414 77.9472 55.8677 78.5974 53.9867C78.7392 53.5775 78.8312 52.2225 78.7445 52.6238C78.3071 54.6216 76.2409 55.9032 74.2877 55.5726C74.3245 55.5267 74.3599 55.4808 74.3954 55.4322C74.687 55.0269 73.3249 54.5927 72.6261 54.4576C72.8836 54.3162 73.1323 54.1594 73.3708 53.988C74.9668 52.8429 76.5562 50.9002 76.9239 48.9825C77.0829 48.1535 74.5596 49.4862 74.3481 49.7341L74.1117 50.0135C74.0671 50.0459 74.0316 50.0893 74.0086 50.1393C73.9856 50.1894 73.9759 50.2445 73.9803 50.2995C72.8862 53.5552 69.4487 54.0694 67.2131 54.0615C60.1805 53.3571 53.0874 49.2199 51.9447 48.6598C48.8789 46.3118 46.4568 43.2568 45.7369 39.3124C45.3258 37.0589 46.1993 33.7337 47.7072 31.8972C48.5203 30.9056 49.269 30.0044 50.8413 29.4207C56.2123 30.7324 62.6092 33.533 67.64 35.5688C67.7923 35.6317 68.365 35.4914 68.105 35.2894C67.446 34.7863 66.7426 34.3441 66.0033 33.9685C66.6023 33.9344 67.4915 34.1574 67.7109 34.219C68.6041 34.4709 77.6713 38.2447 78.7445 38.4716C81.2257 38.9963 84.4163 37.2989 86.0017 38.0466C87.5871 38.7943 89.9488 40.8013 90.3862 41.3036C93.3614 44.705 95.8177 48.4971 98.9386 51.7843C100.13 53.0397 101.492 54.1271 102.689 55.3719C106.834 59.0762 106.297 62.5339 106.42 64.1487C106.636 66.9768 106.171 69.4192 104.722 71.8721C102.345 75.9004 89.8792 96.5326 87.9838 101.618C87.6081 102.631 85.0941 108.221 84.1194 109.961C83.3615 110.739 79.7165 117.005 79.6784 117.061C79.3868 117.495 78.9231 117.369 79.8571 117.819C80.0317 117.903 81.1824 118.113 80.9473 119.627C80.6057 122.295 80.8343 125.014 80.9853 127.707C81.4188 135.47 81.8181 143.212 82.4394 150.965C83.6584 166.198 86.1882 197.269 86.9409 200.655L89.0163 225.078H92.5194C92.1043 221.056 91.8259 219.277 91.751 218.679C91.5145 216.781 91.2812 214.882 91.0509 212.982C90.5903 209.183 90.1433 205.382 89.7098 201.58C88.8127 193.709 88.4475 185.793 87.6791 177.913C86.1935 162.679 85.2477 147.411 83.9053 132.167C83.5493 128.11 83.0069 123.89 83.6426 119.837C83.9342 118.07 84.5187 116.379 85.2359 114.737Z" fill="white"/>
<path d="M83.0068 65.8212C84.1377 65.8789 85.513 64.8518 83.6636 64.8859C80.2339 64.9489 76.9646 63.5624 74.8235 60.9153C74.4295 60.426 74.658 61.743 74.9339 62.0066C77.2798 64.2484 79.656 65.6493 83.0068 65.8212Z" fill="white"/>
<path d="M84.3847 13.032C84.365 12.7762 84.2035 11.7767 83.7831 12.3276C83.1632 13.1383 82.5497 13.4124 83.1934 13.8361C82.4998 15.1623 81.1706 16.1526 79.6469 16.31C79.3001 16.3468 79.0742 16.4819 79.4341 16.7036C79.7244 16.8885 80.3995 16.9659 80.699 16.8006C81.2086 16.5186 81.7498 16.3074 82.2595 16.0136C82.8519 15.6634 83.3917 15.2607 83.95 14.8619C84.4176 14.5313 84.4202 13.5095 84.3847 13.032Z" fill="white"/>
<path d="M33.3386 26.6425C33.3766 26.6176 33.4187 26.5979 33.4581 26.5703L33.3268 26.6162C33.1757 26.2949 32.8013 25.8436 32.5925 26.0181L32.2483 26.3067C30.8534 26.5782 29.3467 26.6543 27.9807 26.3854C27.6155 26.3145 28.2618 27.217 28.5573 27.2669C29.9694 27.5108 31.5469 27.5607 32.846 26.9311L33.3412 26.9048C33.4161 26.9009 33.4016 26.7881 33.3386 26.6425Z" fill="white"/>
<path d="M16.7527 35.5687C16.6124 35.4194 16.4424 35.301 16.2536 35.2211C16.5163 35.2605 16.5714 35.2474 16.4204 35.1779C16.2995 35.1779 16.1787 35.1779 16.0565 35.1884H15.9725L15.719 35.2002C15.557 35.2072 15.3957 35.2234 15.2356 35.2487C15.0727 35.2736 15.4602 36.1472 15.7005 36.1407C16.1143 36.1315 16.5228 36.0895 16.934 36.0515C17.1691 36.0318 16.796 35.6107 16.7527 35.5687Z" fill="white"/>
<path d="M56.5524 18.4219C56.4592 18.2068 55.8865 18.1976 55.7091 18.195C55.566 18.195 55.2205 18.2986 55.0878 18.271L55.0248 18.0769C54.9237 18.0874 54.8225 18.0966 54.7214 18.1031C54.1644 18.1412 53.5064 17.972 53.0309 18.3091C53.0007 18.3301 52.91 18.4271 52.9455 18.4678C53.354 18.9269 54.0396 18.9794 54.6242 19.0109C55.0103 19.0477 55.3995 19.0358 55.7827 18.9754C55.9916 18.9295 56.6772 18.7092 56.5524 18.4219Z" fill="white"/>
<path d="M46.5159 13.4492C46.527 13.4753 46.5356 13.5025 46.5416 13.5302C46.5384 13.5018 46.5297 13.4742 46.5159 13.4492Z" fill="white"/>
<path d="M68.5383 12.161C68.549 12.1847 68.5578 12.2093 68.5646 12.2344C68.6145 12.3641 68.621 12.3091 68.5383 12.161Z" fill="white"/>
<path d="M62.5473 6.41175C61.7382 5.65095 59.2635 4.52155 52.8443 5.16167C48.6253 5.87263 46.4238 6.03659 44.3879 11.1956C43.5236 13.5423 44.5521 19.0292 44.5468 19.0935C44.4155 20.5299 44.6913 27.8611 45.1668 34.1666L45.7263 35.3274C45.7014 34.6152 45.6764 33.9082 45.6252 33.2287C45.4938 31.5103 46.039 23.4616 46.0101 21.4533C46.0064 21.3137 45.9911 21.1746 45.9641 21.0375C46.5262 22.1522 47.4796 23.0212 48.6424 23.4786C49.2597 23.7265 49.0785 22.6168 48.7855 21.6934C48.746 21.4172 48.6645 21.1487 48.5438 20.8971C47.5054 19.465 46.8573 17.7881 46.6629 16.0306C46.5184 14.8658 44.7491 10.9884 48.0644 8.30719C49.7011 6.9771 57.9973 5.84639 61.1616 7.22108C63.0872 7.87695 64.5767 10.7811 65.2335 12.4864C65.5619 11.2573 63.5798 7.02433 62.5473 6.41175Z" fill="white"/>
<path d="M29.9654 113.632C29.3008 113.977 27.9872 113.467 27.232 113.251C26.6448 113.081 26.2849 112.655 25.9342 112.183C25.5283 111.637 25.1829 111.053 24.7271 110.546C24.0703 109.816 23.4267 109.088 22.8054 108.329C22.1 107.466 19.3246 104.752 19.2589 104.795C19.1144 104.886 20.1495 107.55 20.4122 107.988C20.9954 108.969 21.5698 109.955 22.1355 110.946C23.1745 112.772 24.3265 114.763 26.1588 115.908C26.84 116.356 27.6225 116.626 28.4352 116.695C29.4715 116.757 30.454 116.342 31.3722 115.908C33.3425 114.99 35.2563 113.981 37.1793 112.982C37.7677 112.676 31.6585 112.752 29.9654 113.632Z" fill="white"/>
<path d="M75.1191 111.939C74.285 113.58 71.5135 114.535 69.5957 115.1C67.7699 115.638 53.5537 107.966 51.5873 107.728C50.5194 107.597 42.9338 107.551 43.0048 107.577C43.9939 107.934 55.4333 111.906 56.7797 112.132C58.193 112.366 64.9642 114.675 66.9989 115.444C69.0677 116.231 71.7158 117.217 73.8752 116.408C76.0596 115.589 77.6739 111.484 78.6775 109.519C79.0479 108.795 75.6879 110.821 75.1191 111.939Z" fill="white"/>
<path d="M20.6565 122.514C20.6263 122.357 20.5974 122.2 20.5672 122.043C20.5068 121.621 19.7791 117.527 19.3771 115.98C19.188 115.265 18.9108 114.455 18.6941 113.636C18.0899 110.165 11.2872 103.212 10.8655 102.618C9.04282 100.033 7.76599 97.1047 7.11277 94.0114C5.01113 86.5044 5.62454 68.4537 5.52997 63.3301C6.28656 63.6817 7.6986 64.0857 7.6697 63.6292C7.56594 61.9659 6.26819 60.5873 5.54838 59.0828C5.35529 58.6774 5.17927 58.2669 5.01508 57.8537C4.88373 56.8633 4.71034 55.8743 4.48967 54.8839C4.22696 53.6876 3.88283 52.5071 3.51241 51.3423C3.16433 50.243 2.63234 49.1976 2.32104 48.0866C2.24939 47.8282 2.19584 47.5653 2.16079 47.2995C2.36176 47.6471 2.5614 47.9882 2.73216 48.324C3.68315 50.1827 4.63546 51.3488 5.00062 53.3925C5.00062 53.4082 4.40034 53.9985 4.45026 53.9893C5.71518 53.7585 5.8347 53.1892 5.45772 51.985C4.95595 50.3768 3.80007 48.8802 2.97649 47.4438C2.70721 46.9768 2.3946 46.5072 2.15685 46.0127C2.25933 45.2718 2.48486 44.5532 2.82413 43.8864C3.44674 42.6101 4.08773 41.343 4.72085 40.0719C5.35397 38.8009 5.9109 37.4734 6.59131 36.2338C6.995 35.4984 7.3978 34.7621 7.79974 34.0249V31.3384C7.03264 32.561 6.29968 33.7927 5.61665 35.0651C4.93362 36.3374 4.14946 37.5337 3.46248 38.7956C2.71509 40.1677 1.98213 41.5502 1.28728 42.9446C0.738228 44.0464 0.09329 45.1916 0.00922446 46.4443C-0.0814087 47.7875 0.411156 49.2435 0.757927 50.5277C1.16512 52.0388 1.67741 53.5079 2.18706 54.9876C3.15118 57.7592 3.737 60.5125 3.84734 63.4508C3.95899 66.414 3.80532 69.3864 3.82633 72.3522C3.8456 75.1881 3.93712 78.0215 4.10087 80.8522C4.26462 83.6829 4.49885 86.5079 4.80359 89.3272C5.11227 92.1776 5.50109 95.0188 6.33518 97.7695C6.78149 99.2372 7.36325 100.66 8.07297 102.021C8.20432 102.283 8.33566 102.553 8.48803 102.816C8.74154 103.266 9.01342 103.702 9.29452 104.127C9.49811 104.444 9.70697 104.757 9.92239 105.065C10.3909 105.734 10.89 106.381 11.4198 107.004C11.8323 107.529 12.25 108.038 12.665 108.556C14.1966 110.47 16.0185 112.874 17.2492 115.008C17.3451 115.564 17.4502 116.118 17.5553 116.674C17.8767 118.362 18.1595 120.056 18.4038 121.757C18.8916 125.12 19.2502 128.498 19.4796 131.891C19.913 138.331 19.9236 144.821 19.7016 151.268C19.4389 158.847 17.42 192.348 17.3727 193.738C16.4532 199.195 13.2824 225.088 13.2824 225.088H15.6323C17.7168 211.815 17.8889 199.662 19.0291 189.623C20.7091 179.743 21.752 156.191 21.8689 154.544C22.6478 143.546 22.7095 133.358 20.6565 122.514Z" fill="white"/>
<path d="M104.813 56.1261C103.385 54.6176 102.091 52.4992 100.971 50.0725C100.904 49.7433 100.839 49.4166 100.776 49.0861C100.436 47.3926 100.143 45.69 99.8738 43.9835C99.2736 40.1703 98.5748 36.3676 97.8536 32.5715C97.3387 29.8627 96.8593 27.1566 96.4416 24.4322C96.1789 22.7532 94.185 16.5618 93.9459 16.2405C93.5262 15.0059 92.9776 13.8188 92.3092 12.6988C92.2239 12.4693 92.1372 12.2397 92.0465 12.0141C91.6774 11.1051 91.2991 10.1987 90.9051 9.30012C90.511 8.40159 90.117 7.51486 89.6651 6.63601C88.7772 4.62644 87.6554 2.59196 86.1869 1.38123C85.2832 0.510248 84.1299 -0.236124 76.6862 0.0695077C74.1787 0.188875 71.1628 0.573211 69.2372 2.36896C65.6841 5.68107 66.3763 11.5681 66.3698 12.2764C66.3553 13.9817 66.3882 16.4254 67.7595 17.6742C68.1246 19.4844 68.3979 30.3664 68.9022 33.9855C69.3449 34.1547 70.1777 34.358 70.5744 34.6125C69.425 30.5462 69.5419 20.0038 69.1952 18.25C69.2767 18.2391 69.3538 18.2064 69.4183 18.1554C69.4828 18.1044 69.5323 18.0369 69.5616 17.9601C69.7928 17.0944 69.4815 16.676 69.1374 15.8614C68.8035 15.0137 68.592 14.1228 68.5095 13.2156C68.6159 12.8693 67.9973 6.58485 70.1081 4.09388C73.162 0.794891 80.4376 1.6344 82.4854 1.91379C84.5555 2.3729 86.9159 3.72791 87.9891 5.96703C89.1857 8.3019 92.8058 18.4035 92.924 18.8665C93.4008 20.7305 93.9262 22.5722 94.4608 24.4204C94.5725 24.8073 94.6854 25.1943 94.7958 25.5826C95.3501 29.2554 95.6036 32.5242 95.7914 34.24C96.1224 37.2727 96.4482 39.7414 96.8829 42.0657C96.9066 42.2481 96.9302 42.4317 96.9565 42.614C97.2008 44.3481 97.474 46.0783 97.7971 47.7993C97.9302 48.5928 98.1105 49.3778 98.337 50.1499C98.4663 50.5639 98.6389 50.9631 98.8519 51.3409C99.3261 52.1739 100.179 53.3899 101.223 53.5709C101.71 53.6535 101.864 53.4397 101.856 53.1026C103.286 54.5783 104.726 56.0723 104.813 56.1261Z" fill="white"/>
<path d="M53.6089 92.6223C52.627 91.6006 51.7602 90.4745 51.0239 89.2643C49.7103 87.1354 49.0759 84.9067 48.7593 82.5811C48.7134 82.3541 48.6753 82.1233 48.6464 81.8911C48.4112 79.993 48.431 78.0267 48.4993 76.1195C48.5899 73.3736 48.9391 70.6424 49.5422 67.9619C49.6105 67.4726 49.6735 66.9833 49.7313 66.494C49.9323 64.7521 50.4472 63.115 51.0225 61.4649C51.2169 60.9113 51.4744 59.6888 52.0445 59.4711C52.1035 59.4496 52.1656 59.4376 52.2284 59.4356C51.493 58.9971 50.8287 58.4496 50.2581 57.8117C49.4899 56.9614 48.8307 56.0189 48.2957 55.0059C48.1052 56.1445 47.6218 57.1323 46.5657 57.834C44.8949 58.9411 42.6935 59.9328 40.8506 60.7198C39.9456 61.1029 38.1973 61.4006 36.5856 61.3154C35.1 61.2025 33.9297 60.7631 33.4581 60.1781C33.1074 59.7426 32.117 56.6181 31.6888 55.4978C30.592 52.6291 29.683 49.7053 28.6677 46.8103C27.5643 43.6621 25.7214 36.5867 25.5283 35.8062C26.323 36.9356 26.8878 37.198 27.4986 38.3706C28.1291 39.5709 28.6808 40.8065 29.1878 42.0605C29.1878 42.0605 27.6904 36.8464 26.5608 34.9064C25.975 33.9029 25.2551 31.9694 24.6785 29.6175C25.3687 30.3019 26.1555 30.8817 27.0139 31.3385C28.0293 31.8802 26.7197 29.2896 26.4701 29.0482C24.4893 27.1318 23.4819 24.4362 23.9062 21.6606C23.9797 21.1765 23.6132 20.48 23.7998 20.0261C25.4824 14.5077 31.9002 14.3542 34.7138 13.9647C38.1881 13.4833 41.8436 17.0289 42.989 18.0389C43.0862 18.1255 43.6852 19.024 43.655 18.8417C43.3923 17.2138 40.4408 12.4955 34.0032 12.3735C28.8529 13.2917 25.2026 13.9686 23.0537 17.4132C22.2038 19.2103 21.9871 23.0011 22.322 25.277C22.322 25.319 22.5348 26.2818 22.8475 27.6761C22.1158 26.9481 20.8627 25.7282 20.2112 25.5997C12.3156 24.9071 6.86447 28.0919 6.44283 32.0271C6.36927 32.8142 6.6609 33.7665 6.7292 34.5863C6.7292 34.5994 6.7292 34.6125 6.7292 34.6257C6.59785 35.2514 6.73707 37.6426 6.84872 38.0637C6.90389 40.5153 7.60793 43.0588 8.28045 45.2467C9.73715 49.9755 11.3134 54.8053 13.4282 59.2887C13.9912 60.478 14.5687 61.6625 15.1607 62.8422C15.5206 63.5597 15.9488 64.8098 16.6318 65.3069C16.9404 65.5221 17.2866 65.6778 17.6525 65.766C19.5413 67.5356 25.4114 67.0135 27.5617 66.233C28.4327 65.9317 29.2692 65.539 30.0574 65.0616C30.2031 65.0285 30.3463 64.9847 30.4856 64.9305C31.1423 64.6681 31.9712 64.3061 32.5452 63.8811C32.5688 63.8627 32.7646 63.7788 32.7317 63.7643C32.8316 63.7676 32.9309 63.7799 33.0286 63.8011C33.3939 63.8983 33.7503 64.0264 34.0938 64.1841C34.7191 64.4333 35.3325 64.6655 35.9328 64.9488C35.9645 65.4212 35.9079 65.8954 35.7659 66.3471C35.2904 66.9033 34.2987 68.1599 33.7287 68.6873C32.846 69.5032 31.7715 70.6968 31.698 71.9561C31.9528 71.6452 32.2234 71.3369 32.4861 71.0379C32.7306 70.6278 33.0224 70.2479 33.3556 69.9058C33.6827 69.49 33.9599 69.0257 34.3578 68.6912C35.3679 67.8412 36.491 67.1486 37.8873 65.2807C38.2514 64.506 38.662 63.7539 39.1167 63.0285H39.2586C40.8191 62.9668 42.5792 62.4697 44.1764 61.6603C44.5705 61.4623 45.3586 62.1365 45.7093 62.7989C46.0738 63.2207 46.3391 63.7187 46.4856 64.2562C47.0583 66.1359 47.0636 69.2001 47.1424 70.1813C47.2422 73.0737 47.4997 75.9621 47.6678 78.8505C47.8675 82.3213 48.2917 85.4262 49.889 88.5927C50.7191 90.2402 51.9223 91.5847 53.1189 92.9424C53.8013 93.4417 54.4507 93.9846 55.0629 94.5676C55.1943 94.6988 55.3256 94.8208 55.4478 94.9506C55.038 94.0495 54.2919 93.332 53.6089 92.6223ZM25.6952 64.3218C23.7827 64.9055 20.5094 65.867 18.765 64.4661C18.1516 63.9729 17.8272 62.6691 17.4896 61.9856C17.0955 61.1776 16.666 60.3827 16.2523 59.5826C15.497 58.12 14.7075 56.6784 13.8511 55.2722C12.1252 52.4402 10.3125 49.9597 9.16445 46.788C8.38787 44.6441 7.87449 42.4141 7.63552 40.1467C7.6434 40.1664 7.65259 40.1861 7.66047 40.2044C8.80061 42.8161 10.813 45.3018 12.2145 47.8426C12.1436 47.2681 12.0962 46.6935 12.066 46.119C11.601 45.1474 11.126 44.1816 10.6408 43.2214C10.3873 42.7216 10.1247 42.2232 9.86851 41.7208C10.0183 41.8034 10.1706 41.8808 10.3243 41.9503C10.3717 41.9624 10.4215 41.962 10.4687 41.9492C10.5159 41.9363 10.5589 41.9114 10.5936 41.8769L11.5774 41.1685C11.6786 41.0964 12.5074 40.3907 12.2407 40.2031C11.2293 39.4935 9.6728 39.2233 9.04756 38.1253C8.70998 37.5311 8.57864 36.7638 8.5944 36.1C7.61451 28.3372 12.355 28.3464 15.2579 27.7181C18.1411 27.0937 20.4923 26.6989 21.6942 27.9004H21.7638C22.2367 28.3425 22.7253 28.5196 23.0379 28.5038C23.8615 32.1071 25.1264 37.5718 25.3655 38.6658C25.9855 41.5149 29.306 52.8009 30.3831 55.5438C30.6695 56.2705 30.969 56.9867 31.2698 57.712C31.5482 61.2563 27.7705 63.687 25.6952 64.3218Z" fill="white"/>
<path d="M64.9788 56.1405C64.9287 55.7785 64.8348 55.424 64.699 55.0846C64.7568 55.0072 64.8119 54.9285 64.8671 54.8485C64.7835 54.8669 64.7017 54.8928 64.6228 54.9259C64.4744 54.6517 64.2721 54.455 64.0002 54.4891C63.262 54.5822 62.5737 54.9521 61.9892 55.4453C61.8486 55.507 61.4322 55.7405 60.8779 56.0422C60.8828 56.0274 60.8885 56.013 60.895 55.9989C60.8575 56.0173 60.8261 56.0459 60.8044 56.0815C59.6721 56.6941 58.0197 57.552 56.9636 57.8012C55.8879 58.0544 54.6203 58.276 53.5274 58.1108C51.104 57.7435 49.6289 56.4147 48.9051 54.3566C48.4599 53.0869 46.7273 46.9847 46.969 45.1011C46.9927 44.9187 46.1205 42.4658 46.1086 42.8947C46.0312 45.6887 47.3946 54.8734 47.5535 55.225L47.5417 55.3128C48.1 56.3622 48.6661 57.4575 49.4713 58.3298C49.713 58.5922 50.1464 58.8545 50.6705 59.1011L50.4932 61.9226C50.7139 61.6446 51.5532 60.1046 53.7468 60.0403C60.2606 60.6752 60.6546 65.156 61.1774 66.3904C61.2037 66.452 61.3482 66.4206 61.3534 66.3576C61.4585 64.9212 59.9204 61.373 62.0588 59.2743C62.3731 58.9763 62.7219 58.7169 63.0978 58.5017C63.5391 58.2485 67.0095 57.1034 67.4639 56.9053C68.0957 56.6298 65.0668 56.7151 64.9788 56.1405Z" fill="white"/>
</g>
</g>
<defs>
<clipPath id="clip0_2_1621">
<rect width="108.325" height="225.091" fill="white"/>
</clipPath>
</defs>
</svg>
